<mxfile host="65bd71144e">
    <diagram id="iulh4MBJMXaiaXFH9pD0" name="Page-1">
        <mxGraphModel dx="1733" dy="458" grid="1" gridSize="10" guides="1" tooltips="1" connect="1" arrows="1" fold="1" page="1" pageScale="1" pageWidth="827" pageHeight="1169" math="0" shadow="0">
            <root>
                <mxCell id="0"/>
                <mxCell id="1" parent="0"/>
                <mxCell id="2" value="有償ライセンスを払うことが可能。&lt;div&gt;また正式な製品サポートを必要するか。&lt;/div&gt;" style="rounded=0;whiteSpace=wrap;html=1;fontStyle=0" vertex="1" parent="1">
                    <mxGeometry x="280" y="40" width="240" height="50" as="geometry"/>
                </mxCell>
                <mxCell id="8" value="大規模システムを想定しているか。" style="rounded=0;whiteSpace=wrap;html=1;fontStyle=0" vertex="1" parent="1">
                    <mxGeometry x="120" y="160" width="240" height="50" as="geometry"/>
                </mxCell>
                <mxCell id="9" value="高いSQL準拠度、拡張性、トランザクション強度を重視するか。" style="rounded=0;whiteSpace=wrap;html=1;fontStyle=0" vertex="1" parent="1">
                    <mxGeometry x="440" y="160" width="240" height="50" as="geometry"/>
                </mxCell>
                <mxCell id="10" value="Webアプリや小〜中規模での運用が多く、導入がシンプルなものを優先するか。" style="rounded=0;whiteSpace=wrap;html=1;fontStyle=0" vertex="1" parent="1">
                    <mxGeometry x="440" y="240" width="240" height="50" as="geometry"/>
                </mxCell>
                <mxCell id="11" value="" style="endArrow=classic;html=1;exitX=0.5;exitY=1;exitDx=0;exitDy=0;entryX=0.5;entryY=0;entryDx=0;entryDy=0;" edge="1" parent="1" source="2" target="8">
                    <mxGeometry width="50" height="50" relative="1" as="geometry">
                        <mxPoint x="450" y="260" as="sourcePoint"/>
                        <mxPoint x="280" y="160" as="targetPoint"/>
                        <Array as="points">
                            <mxPoint x="400" y="120"/>
                            <mxPoint x="340" y="120"/>
                            <mxPoint x="240" y="120"/>
                        </Array>
                    </mxGeometry>
                </mxCell>
                <mxCell id="12" value="Window環境や .NET連携が中心か。" style="rounded=0;whiteSpace=wrap;html=1;fontStyle=0" vertex="1" parent="1">
                    <mxGeometry x="120" y="240" width="240" height="50" as="geometry"/>
                </mxCell>
                <mxCell id="13" value="" style="endArrow=classic;html=1;exitX=0.5;exitY=1;exitDx=0;exitDy=0;entryX=0.5;entryY=0;entryDx=0;entryDy=0;" edge="1" parent="1" source="8" target="12">
                    <mxGeometry width="50" height="50" relative="1" as="geometry">
                        <mxPoint x="330" y="250" as="sourcePoint"/>
                        <mxPoint x="380" y="200" as="targetPoint"/>
                    </mxGeometry>
                </mxCell>
                <mxCell id="14" value="" style="endArrow=classic;html=1;exitX=0.5;exitY=1;exitDx=0;exitDy=0;entryX=0.5;entryY=0;entryDx=0;entryDy=0;" edge="1" parent="1" target="9">
                    <mxGeometry width="50" height="50" relative="1" as="geometry">
                        <mxPoint x="400" y="90" as="sourcePoint"/>
                        <mxPoint x="240" y="160" as="targetPoint"/>
                        <Array as="points">
                            <mxPoint x="400" y="120"/>
                            <mxPoint x="560" y="120"/>
                        </Array>
                    </mxGeometry>
                </mxCell>
                <mxCell id="15" value="" style="endArrow=classic;html=1;exitX=0.5;exitY=1;exitDx=0;exitDy=0;entryX=0.5;entryY=0;entryDx=0;entryDy=0;" edge="1" parent="1" source="9" target="10">
                    <mxGeometry width="50" height="50" relative="1" as="geometry">
                        <mxPoint x="250" y="220" as="sourcePoint"/>
                        <mxPoint x="250" y="250" as="targetPoint"/>
                    </mxGeometry>
                </mxCell>
                <mxCell id="17" value="Yes" style="text;html=1;align=center;verticalAlign=middle;whiteSpace=wrap;rounded=0;strokeColor=none;" vertex="1" parent="1">
                    <mxGeometry x="200" y="100" width="40" height="20" as="geometry"/>
                </mxCell>
                <mxCell id="18" value="No" style="text;html=1;align=center;verticalAlign=middle;whiteSpace=wrap;rounded=0;strokeColor=none;" vertex="1" parent="1">
                    <mxGeometry x="560" y="100" width="40" height="20" as="geometry"/>
                </mxCell>
                <mxCell id="20" value="Yes" style="text;html=1;align=center;verticalAlign=middle;whiteSpace=wrap;rounded=0;strokeColor=none;" vertex="1" parent="1">
                    <mxGeometry x="-20" y="160" width="40" height="20" as="geometry"/>
                </mxCell>
                <mxCell id="21" value="No" style="text;html=1;align=center;verticalAlign=middle;whiteSpace=wrap;rounded=0;strokeColor=none;" vertex="1" parent="1">
                    <mxGeometry x="200" y="215" width="40" height="20" as="geometry"/>
                </mxCell>
                <mxCell id="22" value="No" style="text;html=1;align=center;verticalAlign=middle;whiteSpace=wrap;rounded=0;strokeColor=none;" vertex="1" parent="1">
                    <mxGeometry x="560" y="215" width="40" height="20" as="geometry"/>
                </mxCell>
                <mxCell id="23" value="Yes" style="text;html=1;align=center;verticalAlign=middle;whiteSpace=wrap;rounded=0;strokeColor=none;" vertex="1" parent="1">
                    <mxGeometry x="60" y="235" width="40" height="20" as="geometry"/>
                </mxCell>
                <mxCell id="24" value="Yes" style="text;html=1;align=center;verticalAlign=middle;whiteSpace=wrap;rounded=0;strokeColor=none;" vertex="1" parent="1">
                    <mxGeometry x="780" y="160" width="40" height="20" as="geometry"/>
                </mxCell>
                <mxCell id="25" value="Yes" style="text;html=1;align=center;verticalAlign=middle;whiteSpace=wrap;rounded=0;strokeColor=none;" vertex="1" parent="1">
                    <mxGeometry x="700" y="235" width="40" height="20" as="geometry"/>
                </mxCell>
                <mxCell id="27" value="" style="endArrow=classic;html=1;exitX=0;exitY=0.5;exitDx=0;exitDy=0;" edge="1" parent="1" source="8">
                    <mxGeometry width="50" height="50" relative="1" as="geometry">
                        <mxPoint x="10" y="215" as="sourcePoint"/>
                        <mxPoint y="360" as="targetPoint"/>
                        <Array as="points">
                            <mxPoint y="185"/>
                        </Array>
                    </mxGeometry>
                </mxCell>
                <mxCell id="28" value="" style="endArrow=classic;html=1;exitX=0;exitY=0.5;exitDx=0;exitDy=0;" edge="1" parent="1" source="12">
                    <mxGeometry width="50" height="50" relative="1" as="geometry">
                        <mxPoint x="120" y="260" as="sourcePoint"/>
                        <mxPoint x="80" y="360" as="targetPoint"/>
                        <Array as="points">
                            <mxPoint x="80" y="265"/>
                        </Array>
                    </mxGeometry>
                </mxCell>
                <mxCell id="29" value="" style="endArrow=classic;html=1;exitX=1;exitY=0.5;exitDx=0;exitDy=0;" edge="1" parent="1" source="10">
                    <mxGeometry width="50" height="50" relative="1" as="geometry">
                        <mxPoint x="680" y="265" as="sourcePoint"/>
                        <mxPoint x="720" y="360" as="targetPoint"/>
                        <Array as="points">
                            <mxPoint x="720" y="265"/>
                        </Array>
                    </mxGeometry>
                </mxCell>
                <mxCell id="31" value="" style="endArrow=classic;html=1;exitX=1;exitY=0.5;exitDx=0;exitDy=0;" edge="1" parent="1" source="9">
                    <mxGeometry width="50" height="50" relative="1" as="geometry">
                        <mxPoint x="850" y="200" as="sourcePoint"/>
                        <mxPoint x="800" y="360" as="targetPoint"/>
                        <Array as="points">
                            <mxPoint x="800" y="185"/>
                        </Array>
                    </mxGeometry>
                </mxCell>
                <mxCell id="34" value="Oracle" style="rounded=0;whiteSpace=wrap;html=1;" vertex="1" parent="1">
                    <mxGeometry x="-40" y="360" width="76" height="30" as="geometry"/>
                </mxCell>
                <mxCell id="35" value="SQL Server" style="rounded=0;whiteSpace=wrap;html=1;" vertex="1" parent="1">
                    <mxGeometry x="44" y="360" width="76" height="30" as="geometry"/>
                </mxCell>
                <mxCell id="37" value="MySQL&lt;div&gt;MariaDB&lt;/div&gt;" style="rounded=0;whiteSpace=wrap;html=1;" vertex="1" parent="1">
                    <mxGeometry x="680" y="360" width="76" height="30" as="geometry"/>
                </mxCell>
                <mxCell id="38" value="PostgreSQL" style="rounded=0;whiteSpace=wrap;html=1;" vertex="1" parent="1">
                    <mxGeometry x="762" y="360" width="76" height="30" as="geometry"/>
                </mxCell>
                <mxCell id="40" value="他のDBを検討する" style="rounded=0;whiteSpace=wrap;html=1;fontStyle=0" vertex="1" parent="1">
                    <mxGeometry x="280" y="340" width="240" height="50" as="geometry"/>
                </mxCell>
                <mxCell id="41" value="" style="endArrow=classic;html=1;entryX=0.5;entryY=0;entryDx=0;entryDy=0;" edge="1" parent="1">
                    <mxGeometry width="50" height="50" relative="1" as="geometry">
                        <mxPoint x="560" y="290" as="sourcePoint"/>
                        <mxPoint x="400" y="340" as="targetPoint"/>
                        <Array as="points">
                            <mxPoint x="560" y="310"/>
                            <mxPoint x="500" y="310"/>
                            <mxPoint x="400" y="310"/>
                        </Array>
                    </mxGeometry>
                </mxCell>
                <mxCell id="42" value="" style="endArrow=classic;html=1;exitX=0.5;exitY=1;exitDx=0;exitDy=0;" edge="1" parent="1">
                    <mxGeometry width="50" height="50" relative="1" as="geometry">
                        <mxPoint x="240" y="290" as="sourcePoint"/>
                        <mxPoint x="400" y="340" as="targetPoint"/>
                        <Array as="points">
                            <mxPoint x="240" y="310"/>
                            <mxPoint x="320" y="310"/>
                            <mxPoint x="400" y="310"/>
                        </Array>
                    </mxGeometry>
                </mxCell>
                <mxCell id="43" value="No" style="text;html=1;align=center;verticalAlign=middle;whiteSpace=wrap;rounded=0;strokeColor=none;" vertex="1" parent="1">
                    <mxGeometry x="560" y="300" width="40" height="20" as="geometry"/>
                </mxCell>
                <mxCell id="44" value="No" style="text;html=1;align=center;verticalAlign=middle;whiteSpace=wrap;rounded=0;strokeColor=none;" vertex="1" parent="1">
                    <mxGeometry x="200" y="300" width="40" height="20" as="geometry"/>
                </mxCell>
            </root>
        </mxGraphModel>
    </diagram>
</mxfile>